<svg xmlns="http://www.w3.org/2000/svg" viewBox="0 0 535.1 588.61"><defs><style>.cls-1{fill:#fff;}</style></defs><title>shaggy-barber-icone</title><g id="Calque_2" data-name="Calque 2"><g id="shaggy-barber-logo"><path id="icone" class="cls-1" d="M129.57,106.81H535.1V.21H141.42Q137.63,0,133.77,0t-7.64.21a133.78,133.78,0,0,0,0,267.13c2.53.13,5.08.21,7.64.21s5.12-.08,7.65-.21H405.53a27.29,27.29,0,0,1,.69,53.81c-1.62-.06-3.26-.09-4.9-.09s-3.27,0-4.89.09c-.92,0-1.84.07-2.75.12h-127v-.21H160.1V427.87H393.68c.9.05,1.82.09,2.73.12h0c1.62.06,3.26.09,4.89.09s3.28,0,4.9-.09h0a27.29,27.29,0,0,1-.71,53.81H106.59V321.06H0V588.4H393.68c2.53.13,5.08.21,7.64.21s5.12-.08,7.65-.21a133.77,133.77,0,0,0,99.39-213.83,133.12,133.12,0,0,0,24-53.3A133.78,133.78,0,0,0,409,160.74q-3.8-.21-7.65-.21t-7.64.21H129.57a27.29,27.29,0,0,1,0-53.93Z"/></g></g></svg>