<svg xmlns="http://www.w3.org/2000/svg" viewBox="0 0 279.7 204.35"><defs><style>.cls-1{fill:#fff;}</style></defs><title>shaggy-barber-logo</title><g id="Calque_2" data-name="Calque 2"><g id="Calque_13" data-name="Calque 13"><path class="cls-1" d="M108.79,24h91.28V.05H111.46c-.57,0-1.14,0-1.72,0s-1.15,0-1.72.05a30.11,30.11,0,0,0,0,60.12c.57,0,1.14,0,1.72,0s1.15,0,1.72,0h59.45a6.14,6.14,0,0,1,.15,12.11l-1.1,0-1.1,0-.62,0H139.66v0h-24v24h52.57l.61,0h0l1.1,0,1.1,0h0a6.14,6.14,0,0,1-.15,12.11H103.62V72.26h-24v60.17h88.61c.57,0,1.14,0,1.72,0s1.15,0,1.72,0a30.09,30.09,0,0,0,22.37-48.12,30.11,30.11,0,0,0-22.37-48.13c-.57,0-1.14,0-1.72,0s-1.15,0-1.72,0H108.79a6.14,6.14,0,0,1,0-12.14Z"/><path class="cls-1" d="M0,176.46l3.83-3.75a5.8,5.8,0,0,0,4.83,2.35c1.34,0,2.66-.49,2.66-1.47,0-1.22-2.44-2.3-4.77-3.34C3.53,169,1,167,1,163.38c0-4.12,3.91-7.06,8.43-7.06,3.64,0,6.47,1.72,7.4,4.06l-3.64,3.52a4.52,4.52,0,0,0-3.68-1.8c-1.3,0-2.23.66-2.23,1.48,0,1.09,1.68,1.44,4.25,2.52,3.72,1.57,6.19,3.84,6.19,7.36,0,4.54-4.22,7.36-9,7.36C4.76,180.82,1.2,179.09,0,176.46Z"/><path class="cls-1" d="M40.28,156.68v23.81H34v-9H26.89v9H20.57V156.68h6.32v8.94H34v-8.94Z"/><path class="cls-1" d="M59.68,177.72h-8.9l-1.21,2.77H42.66l11.06-24.11h3L67.8,180.49H60.87Zm-2-4.63-2.44-5.64-2.45,5.64Z"/><path class="cls-1" d="M92.45,169.13c0,7.24-5.47,11.93-12.23,11.93-7.57,0-13.29-5.65-13.29-12.45A12.82,12.82,0,0,1,80.05,156.1a13.81,13.81,0,0,1,8.5,3.15l-3.5,4.8a7.66,7.66,0,0,0-5-2,6.6,6.6,0,1,0,.42,13.18c2.88,0,4.93-1.39,5-3.66H80v-4.72H92.26A15.65,15.65,0,0,1,92.45,169.13Z"/><path class="cls-1" d="M120,169.13c0,7.24-5.47,11.93-12.24,11.93-7.56,0-13.28-5.65-13.28-12.45a12.81,12.81,0,0,1,13.12-12.51,13.76,13.76,0,0,1,8.49,3.15l-3.5,4.8a7.64,7.64,0,0,0-5-2,6.6,6.6,0,1,0,.41,13.18c2.88,0,4.94-1.39,5-3.66h-5.46v-4.72h12.22A15.7,15.7,0,0,1,120,169.13Z"/><path class="cls-1" d="M126.06,170.21l-7.34-13.53h7.17l3.32,6.9,3.31-6.9h7.18l-7.36,13.53v10.28h-6.28Z"/><path class="cls-1" d="M169.42,173.22c0,3.77-3.17,7.27-7.94,7.27H151.32V156.68h7.83c4.31,0,7.47,2.91,7.47,6.19,0,2.45-1.62,4.21-2.6,4.21C166.56,167.08,169.42,169.63,169.42,173.22ZM159,162.17H157.4v3.74h1.51c1.37,0,2.41-.68,2.41-1.91S160.31,162.17,159,162.17Zm4.41,10.3c0-1.39-1-2.23-2.79-2.23H157.4v4.52h3.12C162,174.75,163.36,174,163.36,172.47Z"/><path class="cls-1" d="M186.92,177.72H178l-1.21,2.77H169.9L181,156.38h3l11.08,24.11h-6.93Zm-2-4.63-2.44-5.64L180,173.09Z"/><path class="cls-1" d="M210.15,180.49l-6.37-10.34v10.34h-6.32l0-23.81h9c5.14,0,8.82,3.47,8.82,7.74a7.15,7.15,0,0,1-4.12,6.51l6.38,9.56Zm-6.4-13.35h2.59a2.4,2.4,0,1,0,0-4.79h-2.59Z"/><path class="cls-1" d="M237.93,173.22c0,3.77-3.16,7.27-7.94,7.27H219.83V156.68h7.83c4.31,0,7.48,2.91,7.48,6.19,0,2.45-1.63,4.21-2.6,4.21C235.08,167.08,237.93,169.63,237.93,173.22Zm-10.46-11.05h-1.55v3.74h1.5c1.38,0,2.41-.68,2.41-1.91S228.83,162.17,227.47,162.17Zm4.4,10.3c0-1.39-1-2.23-2.79-2.23h-3.16v4.52H229C230.48,174.75,231.87,174,231.87,172.47Z"/><path class="cls-1" d="M246.87,162.56v3.32h7.56v5.28h-7.56v3.41h9.19v5.92H240.62V156.68h15.44v5.88Z"/><path class="cls-1" d="M272.3,180.49l-6.37-10.34v10.34H259.6l0-23.81h9c5.14,0,8.82,3.47,8.82,7.74a7.17,7.17,0,0,1-4.12,6.51l6.38,9.56Zm-6.4-13.35h2.59a2.4,2.4,0,1,0,0-4.79H265.9Z"/><path class="cls-1" d="M97.31,202l1-.76a3.45,3.45,0,0,0,3,1.7c1.56,0,2.83-.84,2.83-2,0-1.33-1.7-2-3.23-2.55s-3.09-1.29-3.09-3.13,1.65-3.2,3.74-3.2a3.48,3.48,0,0,1,3.41,2.15l-1,.68a2.61,2.61,0,0,0-2.42-1.5,2.19,2.19,0,0,0-2.37,1.9c0,1.15,1.31,1.58,2.85,2.17,1.78.72,3.47,1.55,3.47,3.46,0,2.06-1.89,3.39-4.18,3.39A4.34,4.34,0,0,1,97.31,202Z"/><path class="cls-1" d="M107.3,192.26h1.35v11.91H107.3Z"/><path class="cls-1" d="M120.73,192.23v12.12h-.06l-8.17-9.06v8.9h-1.34V192.08h.07l8.16,9v-8.9Z"/><path class="cls-1" d="M122.62,198.22a6.18,6.18,0,0,1,6.11-6.13,6,6,0,0,1,4.1,1.8L132,195a4.73,4.73,0,0,0-3.36-1.49,4.76,4.76,0,1,0,3.37,8l.78,1.07a5.66,5.66,0,0,1-4.09,1.76A6.16,6.16,0,0,1,122.62,198.22Z"/><path class="cls-1" d="M135.8,193.58v3.77h4.9v1.35h-4.9v4.13h5.66v1.34h-7V192.26h7v1.32Z"/><path class="cls-1" d="M156.28,202.83v1.34H147.4v-.36c5.41-3.95,7.41-6,7.41-7.6a2.76,2.76,0,0,0-2.8-2.74,2.92,2.92,0,0,0-3,3l-1.24-.27a4.18,4.18,0,0,1,8.36,0c0,2.1-2.09,4.3-5.92,6.67Z"/><path class="cls-1" d="M157.54,198.22c0-3.57,2-6.1,4.79-6.1s4.78,2.53,4.78,6.1-2,6.08-4.78,6.08S157.54,201.78,157.54,198.22Zm8.23,0c0-2.78-1.4-4.75-3.44-4.75s-3.45,2-3.45,4.75,1.4,4.72,3.45,4.72S165.77,201,165.77,198.22Z"/><path class="cls-1" d="M171.59,192.19v12h-1.34V193.91l-1.88.57v-1.4l2.83-.89Z"/><path class="cls-1" d="M182.39,201.61H181v2.56h-1.34v-2.56H173l4.73-9.38h1.43l-4.14,8h4.57v-4.34H181v4.34h1.42Z"/></g></g></svg>