<svg xmlns="http://www.w3.org/2000/svg" viewBox="0 0 384 384"><defs><style>.cls-1{fill:#f4e806;}.cls-2{fill:#fff;}</style></defs><title>snapchat_1</title><g id="Calque_2" data-name="Calque 2"><g id="Calque_1-2" data-name="Calque 1"><path class="cls-1" d="M0,229.5V153c1.18-.63.7-1.76.74-2.68q1.58-41.2,5.9-82.22c3.27-31,29-57.64,59.82-61.25,26.56-3.11,53.24-4.95,80-6A1170.89,1170.89,0,0,1,316,6.64c30.92,3.3,57.53,29,61.18,59.89,3.13,26.56,4.93,53.24,6,80a1171.83,1171.83,0,0,1-5.81,169.93c-3.29,30.93-30,57.65-61.05,60.9q-41.77,4.38-83.72,5.95c-.8,0-1.8-.37-2.29.73H153c-.27-.75-.92-.72-1.54-.74-25.83-.88-51.57-2.93-77.31-5.21C44.22,375.4,22.86,361,11,333.21c-4.2-9.81-4.69-20.36-5.68-30.78C3,278.82,1.44,255.16.71,231.45.69,230.74.88,229.91,0,229.5Z"/><path class="cls-2" d="M310,250.24V253c-2.51,5.08-6.76,8.05-12,9.6-3.75,1.1-7.58,1.91-11.4,2.77-6.14,1.39-10.09,4.65-11,11.32-.61,4.7-2.5,6-7.27,5.68-3.67-.23-7.34-.65-11-1-6.85-.72-13.64-1-20.21,1.67-4.62,1.87-8.43,5-12.38,7.9-18.61,13.77-39.88,16.09-60.16,3.31-4.94-3.1-10-6.06-14.94-9.12A26.47,26.47,0,0,0,134.09,281c-2.53.13-5.06.25-7.59.45-4,.31-8.1.87-12.15,1-3.77.11-5.47-1.62-5.81-5.33-.48-5.27-3.11-8.88-8.13-10.66-1.22-.44-2.48-.8-3.74-1.14-4.29-1.16-8.72-1.76-12.87-3.44-3.74-1.51-6.91-3.72-8.87-7.33s-.8-6.49,3.11-7.76c1.82-.59,3.72-.92,5.57-1.42,15.08-4.07,26.06-13.59,34.69-26.2,3-4.43,6-8.92,7.55-14.16,1.39-4.81,0-7.9-4.52-9.94-2.79-1.26-5.72-2.21-8.6-3.26-4.13-1.5-8.17-3.2-11.42-6.27-4.39-4.15-4-10.06.79-13.71a11.67,11.67,0,0,1,10.26-2c3.57.85,7.11,1.91,10.71,2.65,4,.82,5.66-.79,5.21-4.86a170.74,170.74,0,0,1-.35-34.5c1.51-16.73,9-30.41,23.13-39.52,23.21-14.94,47.84-15.78,72.73-4.74,16.55,7.33,27.34,20.08,31.17,38,2.27,10.68,1.86,21.54,1.32,32.37-.16,3.07-.51,6.12-.58,9.19-.09,3.57,1.42,4.79,4.87,4,2.09-.48,4.14-1.12,6.2-1.73a23.88,23.88,0,0,1,9.53-1.2c4.48.49,8.47,3.73,9.41,7.66.87,3.62-1,7.36-5.12,9.94a41,41,0,0,1-6.85,3.27c-4,1.57-8.14,2.78-11.83,5.05-4.52,2.77-5.64,6.17-3.4,10.95,9.34,19.93,23.19,34.76,45.51,39.9A9.35,9.35,0,0,1,310,250.24Z"/></g></g></svg>